<mxfile host="app.diagrams.net" agent="Mozilla/5.0 (Windows NT 10.0; Win64; x64) AppleWebKit/537.36 (KHTML, like Gecko) Chrome/134.0.0.0 Safari/537.36 OPR/119.0.0.0" version="27.1.1">
  <diagram name="Página-1" id="xN713e49Yqed7UO6VAEz">
    <mxGraphModel grid="1" page="1" gridSize="10" guides="1" tooltips="1" connect="1" arrows="1" fold="1" pageScale="1" pageWidth="827" pageHeight="1169" math="0" shadow="0">
      <root>
        <mxCell id="0" />
        <mxCell id="1" parent="0" />
        <mxCell id="HU1gYTTpNDTqksBCKacw-1" value="Cliente" style="rounded=0;whiteSpace=wrap;html=1;align=center;" vertex="1" parent="1">
          <mxGeometry x="40" y="80" width="200" height="60" as="geometry" />
        </mxCell>
        <mxCell id="HU1gYTTpNDTqksBCKacw-5" style="edgeStyle=orthogonalEdgeStyle;rounded=0;orthogonalLoop=1;jettySize=auto;html=1;exitX=1;exitY=0.5;exitDx=0;exitDy=0;" edge="1" parent="1" source="HU1gYTTpNDTqksBCKacw-2">
          <mxGeometry relative="1" as="geometry">
            <mxPoint x="360" y="175" as="targetPoint" />
          </mxGeometry>
        </mxCell>
        <mxCell id="HU1gYTTpNDTqksBCKacw-2" value="&lt;div&gt;- nome: string&lt;/div&gt;&lt;div&gt;- cpf: String&lt;/div&gt;" style="rounded=0;whiteSpace=wrap;html=1;align=center;" vertex="1" parent="1">
          <mxGeometry x="40" y="140" width="200" height="70" as="geometry" />
        </mxCell>
        <mxCell id="HU1gYTTpNDTqksBCKacw-4" value="+abrirconta ()&lt;div&gt;+fecharconta ()&lt;/div&gt;" style="rounded=0;whiteSpace=wrap;html=1;align=center;" vertex="1" parent="1">
          <mxGeometry x="40" y="210" width="200" height="70" as="geometry" />
        </mxCell>
        <mxCell id="HU1gYTTpNDTqksBCKacw-6" value="Conta" style="rounded=0;whiteSpace=wrap;html=1;align=center;" vertex="1" parent="1">
          <mxGeometry x="370" y="80" width="200" height="60" as="geometry" />
        </mxCell>
        <mxCell id="HU1gYTTpNDTqksBCKacw-7" value="&lt;div&gt;- numero: String&lt;/div&gt;&lt;div&gt;- saldo: Float&lt;/div&gt;&lt;div&gt;- status: String&lt;/div&gt;&lt;div&gt;&lt;br&gt;&lt;/div&gt;" style="rounded=0;whiteSpace=wrap;html=1;align=center;" vertex="1" parent="1">
          <mxGeometry x="370" y="140" width="200" height="70" as="geometry" />
        </mxCell>
        <mxCell id="HU1gYTTpNDTqksBCKacw-20" style="edgeStyle=orthogonalEdgeStyle;rounded=0;orthogonalLoop=1;jettySize=auto;html=1;" edge="1" parent="1" source="HU1gYTTpNDTqksBCKacw-8">
          <mxGeometry relative="1" as="geometry">
            <mxPoint x="570" y="330" as="targetPoint" />
          </mxGeometry>
        </mxCell>
        <mxCell id="HU1gYTTpNDTqksBCKacw-22" style="edgeStyle=orthogonalEdgeStyle;rounded=0;orthogonalLoop=1;jettySize=auto;html=1;" edge="1" parent="1" source="HU1gYTTpNDTqksBCKacw-8">
          <mxGeometry relative="1" as="geometry">
            <mxPoint x="380" y="330" as="targetPoint" />
          </mxGeometry>
        </mxCell>
        <mxCell id="HU1gYTTpNDTqksBCKacw-8" value="&lt;div&gt;+ depositar()&lt;/div&gt;&lt;div&gt;+ sacar()&lt;/div&gt;" style="rounded=0;whiteSpace=wrap;html=1;align=center;" vertex="1" parent="1">
          <mxGeometry x="370" y="210" width="200" height="70" as="geometry" />
        </mxCell>
        <mxCell id="HU1gYTTpNDTqksBCKacw-9" value="Contacorrente" style="rounded=0;whiteSpace=wrap;html=1;align=center;" vertex="1" parent="1">
          <mxGeometry x="220" y="350" width="200" height="60" as="geometry" />
        </mxCell>
        <mxCell id="HU1gYTTpNDTqksBCKacw-10" value="Contapoupança" style="rounded=0;whiteSpace=wrap;html=1;align=center;" vertex="1" parent="1">
          <mxGeometry x="530" y="350" width="200" height="60" as="geometry" />
        </mxCell>
        <mxCell id="HU1gYTTpNDTqksBCKacw-11" value="- saldo: Float" style="rounded=0;whiteSpace=wrap;html=1;align=center;" vertex="1" parent="1">
          <mxGeometry x="220" y="410" width="200" height="70" as="geometry" />
        </mxCell>
        <mxCell id="HU1gYTTpNDTqksBCKacw-12" value="- saldo: Float&lt;div&gt;&lt;div&gt;- taxaJuros: Float&lt;/div&gt;&lt;/div&gt;&lt;div&gt;&lt;br&gt;&lt;/div&gt;" style="rounded=0;whiteSpace=wrap;html=1;align=center;" vertex="1" parent="1">
          <mxGeometry x="530" y="410" width="200" height="70" as="geometry" />
        </mxCell>
        <mxCell id="HU1gYTTpNDTqksBCKacw-23" style="edgeStyle=orthogonalEdgeStyle;rounded=0;orthogonalLoop=1;jettySize=auto;html=1;" edge="1" parent="1" source="HU1gYTTpNDTqksBCKacw-14">
          <mxGeometry relative="1" as="geometry">
            <mxPoint x="440" y="620" as="targetPoint" />
          </mxGeometry>
        </mxCell>
        <mxCell id="HU1gYTTpNDTqksBCKacw-14" value="+usarLimite()&lt;div&gt;+calcularTarifa(&lt;/div&gt;" style="rounded=0;whiteSpace=wrap;html=1;align=center;" vertex="1" parent="1">
          <mxGeometry x="220" y="480" width="200" height="70" as="geometry" />
        </mxCell>
        <mxCell id="HU1gYTTpNDTqksBCKacw-24" style="edgeStyle=orthogonalEdgeStyle;rounded=0;orthogonalLoop=1;jettySize=auto;html=1;" edge="1" parent="1" source="HU1gYTTpNDTqksBCKacw-15">
          <mxGeometry relative="1" as="geometry">
            <mxPoint x="480" y="620" as="targetPoint" />
          </mxGeometry>
        </mxCell>
        <mxCell id="HU1gYTTpNDTqksBCKacw-15" value="+calcularJuros()&lt;div&gt;+simularRendimento&lt;/div&gt;" style="rounded=0;whiteSpace=wrap;html=1;align=center;" vertex="1" parent="1">
          <mxGeometry x="530" y="480" width="200" height="70" as="geometry" />
        </mxCell>
        <mxCell id="HU1gYTTpNDTqksBCKacw-16" value="Transação" style="rounded=0;whiteSpace=wrap;html=1;align=center;" vertex="1" parent="1">
          <mxGeometry x="360" y="650" width="200" height="60" as="geometry" />
        </mxCell>
        <mxCell id="HU1gYTTpNDTqksBCKacw-17" value="&lt;div&gt;- valor: Float&lt;/div&gt;&lt;div&gt;- data: Date&lt;/div&gt;&lt;div&gt;- tipo: String&lt;/div&gt;" style="rounded=0;whiteSpace=wrap;html=1;align=center;" vertex="1" parent="1">
          <mxGeometry x="360" y="710" width="200" height="70" as="geometry" />
        </mxCell>
        <mxCell id="HU1gYTTpNDTqksBCKacw-18" value="+executar()&lt;div&gt;+estornar()&lt;/div&gt;" style="rounded=0;whiteSpace=wrap;html=1;align=center;" vertex="1" parent="1">
          <mxGeometry x="360" y="780" width="200" height="70" as="geometry" />
        </mxCell>
        <mxCell id="HU1gYTTpNDTqksBCKacw-25" value="1..*" style="text;html=1;align=center;verticalAlign=middle;resizable=0;points=[];autosize=1;strokeColor=none;fillColor=none;" vertex="1" parent="1">
          <mxGeometry x="240" y="118" width="40" height="30" as="geometry" />
        </mxCell>
        <mxCell id="HU1gYTTpNDTqksBCKacw-26" value="0..*" style="text;html=1;align=center;verticalAlign=middle;resizable=0;points=[];autosize=1;strokeColor=none;fillColor=none;" vertex="1" parent="1">
          <mxGeometry x="370" y="578" width="40" height="30" as="geometry" />
        </mxCell>
        <mxCell id="HU1gYTTpNDTqksBCKacw-27" value="0..*" style="text;html=1;align=center;verticalAlign=middle;resizable=0;points=[];autosize=1;strokeColor=none;fillColor=none;" vertex="1" parent="1">
          <mxGeometry x="500" y="578" width="40" height="30" as="geometry" />
        </mxCell>
      </root>
    </mxGraphModel>
  </diagram>
</mxfile>
